<?xml version="1.0" encoding="utf-8"?>
<!-- Generator: Adobe Illustrator 15.0.0, SVG Export Plug-In . SVG Version: 6.00 Build 0)  -->
<!DOCTYPE svg PUBLIC "-//W3C//DTD SVG 1.1//EN" "http://www.w3.org/Graphics/SVG/1.1/DTD/svg11.dtd">
<svg version="1.1" id="Layer_1" xmlns="http://www.w3.org/2000/svg" xmlns:xlink="http://www.w3.org/1999/xlink" x="0px" y="0px"
	 width="127.5px" height="43.5px" viewBox="0 0 127.5 43.5" enable-background="new 0 0 127.5 43.5" xml:space="preserve">
<g>
	<g>
		<path d="M59.936,21.065c0.086,1.008,0.971,1.309,1.855,1.309s1.928-0.353,2.371-0.707l1.008,1.855c0,0-1.188,1.186-3.873,1.186
			c-2.689,0-4.652-1.537-4.652-4.437c0-2.9,1.947-4.438,4.633-4.438c2.688,0,4.141,1.855,4.141,4.545v0.688H59.936z M61.139,17.936
			c-0.799,0-1.203,0.582-1.293,1.289h2.494C62.34,18.518,61.934,17.936,61.139,17.936"/>
		<path d="M72.084,24.531v-4.687c0-0.795-0.23-1.309-1.027-1.309c-0.795,0-1.098,0.619-1.184,1.15v4.845h-3.289v-8.525h3.111
			l0.178,1.187c0.514-0.638,1.309-1.36,2.545-1.36c2.299,0,2.957,1.449,2.957,3.393v5.306H72.084z"/>
		<path d="M84.834,23.824c-0.76,0.479-1.91,0.707-3.236,0.707H76.68v-11.23h4.74c1.061,0,2.301,0.16,3.008,0.602
			c0.707,0.443,1.221,1.168,1.221,2.318c0,1.148-0.814,2.087-1.875,2.351c1.504,0.265,2.441,1.343,2.441,2.672
			C86.215,22.571,85.596,23.346,84.834,23.824 M82.27,16.733c0-0.584-0.439-0.938-1.025-0.938h-1.221v1.857h1.221
			c0.586,0,1.025-0.354,1.025-0.938V16.733z M81.262,19.879h-1.238v2.193h1.238c0.885,0,1.504-0.266,1.504-1.096
			S82.146,19.879,81.262,19.879"/>
		<path d="M92.387,24.531c0,0-0.178-0.406-0.178-0.85c-0.443,0.443-1.113,1.025-2.387,1.025c-1.275,0-2.939-0.619-2.939-2.652
			c0-2.033,1.914-2.492,2.799-2.669c0.881-0.179,1.996-0.212,2.439-0.212v-0.18c0-0.705-0.582-0.881-1.416-0.881
			c-0.832,0-1.908,0.334-2.633,0.758l-0.762-2.189c0.883-0.443,2.387-0.85,3.803-0.85c1.414,0,2.477,0.3,3.166,0.85
			c0.689,0.545,1.133,1.308,1.133,2.722v3.007c0,0.882,0.068,1.503,0.422,2.121H92.387z M92.121,20.907c0,0-0.654,0.018-1.025,0.088
			c-0.373,0.07-0.92,0.265-0.92,0.795c0,0.532,0.404,0.797,0.848,0.797s0.92-0.23,1.098-0.672V20.907z"/>
		<path d="M102.221,24.531v-4.687c0-0.795-0.232-1.309-1.027-1.309c-0.797,0-1.098,0.619-1.186,1.15v4.845h-3.291v-8.525h3.113
			l0.178,1.187c0.514-0.638,1.309-1.36,2.547-1.36c2.299,0,2.953,1.449,2.953,3.393v5.306H102.221z"/>
		<polygon points="112.336,24.531 111.08,21.968 109.805,24.531 106.162,24.531 109.045,20.235 106.34,16.006 109.984,16.006 
			111.168,18.518 112.352,16.006 115.889,16.006 113.184,20.235 116.066,24.531 		"/>
		<g>
			<path fill="#652C8C" d="M17.07,17.534c0,0.959,0.777,1.735,1.734,1.735s1.734-0.776,1.734-1.735v-1.734h-1.734
				C17.848,15.799,17.07,16.577,17.07,17.534"/>
			<path fill="#652C8C" d="M23.471,4.762c-9.367,0-16.988,7.619-16.988,16.989c0,9.364,7.621,16.987,16.988,16.987
				s16.988-7.623,16.988-16.987C40.459,12.381,32.838,4.762,23.471,4.762 M28.137,29.631H15.893l11.121-13.832h-4.541v1.789h-0.004
				c-0.029,2-1.658,3.611-3.664,3.611c-2.023,0-3.664-1.642-3.664-3.666c0-2.021,1.639-3.662,3.66-3.665h12.242L19.922,27.699h4.549
				v-1.734c0-2.023,1.639-3.666,3.666-3.666c2.023,0,3.664,1.642,3.664,3.666S30.16,29.631,28.137,29.631"/>
			<path fill="#652C8C" d="M28.137,24.229c-0.957,0-1.736,0.779-1.736,1.736v1.734h1.252h0.484c0.957,0,1.734-0.779,1.734-1.734
				C29.871,25.008,29.094,24.229,28.137,24.229"/>
		</g>
		<polygon points="117.441,13.665 117.441,15.579 116.996,15.579 116.996,13.665 116.346,13.665 116.346,13.313 118.09,13.313 
			118.09,13.665 		"/>
		<polygon points="120.57,15.579 120.527,13.877 119.967,15.579 119.57,15.579 119.012,13.877 118.969,15.579 118.549,15.579 
			118.645,13.313 119.221,13.313 119.781,15.038 120.344,13.313 120.92,13.313 121.018,15.579 		"/>
		<polygon points="46.369,24.531 46.369,22.25 51.605,15.92 46.617,15.92 46.617,13.301 55.812,13.301 55.812,15.672 50.754,21.827 
			56.08,21.827 56.08,24.531 		"/>
		<g>
			<path d="M47.881,30.184c-0.009-0.029-0.018-0.059-0.024-0.088c-0.006-0.027-0.012-0.057-0.016-0.09
				c-0.005-0.031-0.008-0.064-0.008-0.1c-0.033,0.039-0.072,0.078-0.115,0.117c-0.045,0.039-0.096,0.074-0.154,0.104
				c-0.059,0.031-0.125,0.057-0.199,0.076c-0.073,0.018-0.154,0.027-0.245,0.027s-0.179-0.014-0.263-0.039
				c-0.086-0.025-0.162-0.066-0.228-0.123c-0.065-0.055-0.118-0.125-0.159-0.211c-0.04-0.088-0.061-0.191-0.061-0.311
				c0-0.121,0.023-0.221,0.069-0.301s0.101-0.145,0.165-0.195c0.064-0.049,0.131-0.088,0.2-0.113
				c0.069-0.027,0.128-0.045,0.173-0.059c0.091-0.023,0.207-0.045,0.35-0.062c0.143-0.016,0.293-0.025,0.453-0.025v-0.135
				c0-0.082-0.014-0.15-0.041-0.205c-0.028-0.057-0.065-0.102-0.111-0.137c-0.045-0.033-0.1-0.059-0.162-0.074
				c-0.062-0.014-0.128-0.021-0.195-0.021c-0.07,0-0.138,0.006-0.203,0.018c-0.066,0.012-0.128,0.027-0.186,0.047
				s-0.111,0.043-0.158,0.066c-0.049,0.025-0.09,0.049-0.125,0.072l-0.141-0.309c0.047-0.027,0.1-0.055,0.159-0.08
				c0.06-0.027,0.126-0.051,0.197-0.072c0.071-0.02,0.146-0.035,0.226-0.049c0.078-0.012,0.16-0.02,0.244-0.02
				c0.168,0,0.307,0.021,0.419,0.061c0.111,0.041,0.2,0.09,0.265,0.145c0.035,0.029,0.066,0.064,0.096,0.102s0.055,0.08,0.077,0.131
				s0.04,0.109,0.052,0.176c0.014,0.066,0.02,0.143,0.02,0.23v0.971c0,0.115,0.01,0.209,0.027,0.281s0.043,0.137,0.074,0.195H47.881
				z M47.819,29.074c-0.022,0-0.055,0.002-0.096,0.004c-0.043,0.004-0.088,0.006-0.136,0.01c-0.048,0.002-0.097,0.006-0.146,0.012
				c-0.048,0.004-0.09,0.01-0.124,0.014c-0.036,0.006-0.081,0.016-0.136,0.031c-0.053,0.014-0.104,0.035-0.154,0.066
				c-0.049,0.029-0.09,0.07-0.125,0.119c-0.035,0.051-0.053,0.113-0.053,0.191c0,0.076,0.014,0.139,0.039,0.189
				c0.024,0.051,0.057,0.092,0.097,0.121s0.083,0.051,0.132,0.064c0.048,0.012,0.096,0.02,0.141,0.02s0.093-0.008,0.145-0.021
				c0.053-0.014,0.104-0.033,0.154-0.062c0.049-0.029,0.098-0.064,0.143-0.109c0.047-0.043,0.086-0.096,0.119-0.156V29.074z"/>
			<path d="M50.116,28.338c-0.013-0.006-0.027-0.01-0.045-0.016c-0.015-0.002-0.031-0.006-0.053-0.01
				c-0.021-0.004-0.043-0.006-0.068-0.006c-0.051,0-0.102,0.006-0.154,0.02s-0.105,0.039-0.162,0.078
				c-0.031,0.021-0.062,0.049-0.096,0.082c-0.032,0.033-0.062,0.072-0.092,0.115c-0.027,0.043-0.053,0.092-0.074,0.146
				c-0.021,0.053-0.037,0.111-0.049,0.174v1.262h-0.437v-2.244h0.405l0.031,0.436c0.029-0.062,0.065-0.123,0.111-0.182
				c0.045-0.059,0.096-0.111,0.154-0.156s0.123-0.082,0.193-0.107c0.068-0.027,0.143-0.041,0.22-0.041
				c0.027,0,0.052,0.002,0.073,0.004c0.021,0.004,0.039,0.008,0.055,0.01c0.018,0.006,0.033,0.01,0.048,0.012L50.116,28.338z"/>
			<path d="M52.466,29.061c0,0.18-0.027,0.34-0.079,0.484s-0.126,0.266-0.221,0.367c-0.095,0.1-0.209,0.178-0.343,0.232
				s-0.281,0.082-0.442,0.082c-0.163,0-0.312-0.027-0.445-0.082s-0.247-0.133-0.343-0.232c-0.095-0.102-0.168-0.223-0.221-0.367
				s-0.078-0.305-0.078-0.484c0-0.176,0.025-0.338,0.078-0.48c0.053-0.145,0.126-0.268,0.221-0.369
				c0.096-0.102,0.209-0.18,0.342-0.234s0.279-0.084,0.441-0.084c0.163,0,0.311,0.027,0.445,0.082
				c0.133,0.055,0.248,0.133,0.344,0.234s0.17,0.225,0.222,0.367C52.438,28.721,52.466,28.883,52.466,29.061z M52.019,29.061
				c0-0.121-0.014-0.232-0.041-0.334s-0.068-0.188-0.122-0.262c-0.054-0.072-0.12-0.129-0.2-0.17
				c-0.078-0.041-0.17-0.062-0.274-0.062c-0.103,0-0.194,0.021-0.274,0.062s-0.146,0.098-0.201,0.17
				c-0.055,0.074-0.096,0.16-0.123,0.262c-0.028,0.102-0.042,0.213-0.042,0.334c0,0.119,0.014,0.23,0.042,0.332
				c0.027,0.102,0.068,0.188,0.121,0.262c0.055,0.072,0.121,0.129,0.199,0.17c0.08,0.041,0.17,0.062,0.273,0.062
				s0.194-0.02,0.273-0.061c0.08-0.041,0.148-0.098,0.202-0.17c0.055-0.072,0.097-0.16,0.124-0.262
				C52.005,29.293,52.019,29.182,52.019,29.061z"/>
			<path d="M54.449,30.184l-0.028-0.408c-0.033,0.055-0.073,0.109-0.12,0.164c-0.046,0.053-0.101,0.102-0.16,0.145
				s-0.128,0.076-0.202,0.104c-0.076,0.025-0.158,0.039-0.248,0.039c-0.108,0-0.206-0.016-0.295-0.047
				c-0.088-0.031-0.165-0.08-0.23-0.146c-0.064-0.066-0.115-0.152-0.15-0.256c-0.035-0.105-0.053-0.232-0.053-0.381v-1.457h0.432
				v1.363c0,0.088,0.008,0.164,0.023,0.232s0.041,0.127,0.077,0.174s0.081,0.084,0.136,0.107c0.057,0.025,0.123,0.037,0.202,0.037
				c0.081,0,0.154-0.018,0.221-0.053c0.066-0.037,0.126-0.082,0.177-0.139c0.052-0.057,0.094-0.117,0.126-0.186
				c0.032-0.066,0.054-0.131,0.065-0.193v-1.344h0.432v2.244H54.449z"/>
			<path d="M57.033,30.184v-1.336c0-0.088-0.007-0.166-0.021-0.238s-0.038-0.133-0.072-0.184c-0.034-0.049-0.079-0.088-0.138-0.115
				c-0.057-0.027-0.129-0.043-0.214-0.043c-0.087,0-0.165,0.021-0.234,0.061s-0.13,0.088-0.18,0.148
				c-0.051,0.059-0.092,0.123-0.124,0.189c-0.031,0.066-0.053,0.127-0.062,0.182v1.336H55.55v-2.244h0.406l0.03,0.412
				c0.033-0.055,0.073-0.111,0.12-0.164c0.047-0.055,0.101-0.105,0.162-0.148s0.131-0.078,0.209-0.105
				c0.076-0.027,0.162-0.041,0.256-0.041c0.113,0,0.215,0.018,0.305,0.051s0.167,0.084,0.23,0.152
				c0.062,0.07,0.111,0.156,0.146,0.262s0.051,0.23,0.051,0.373v1.453H57.033z"/>
			<path d="M59.722,30.184l-0.053-0.344c-0.002,0.004-0.012,0.018-0.025,0.037c-0.015,0.021-0.035,0.045-0.061,0.074
				c-0.026,0.027-0.059,0.059-0.099,0.092c-0.04,0.031-0.087,0.061-0.14,0.088c-0.055,0.027-0.115,0.049-0.186,0.068
				c-0.069,0.018-0.148,0.027-0.234,0.027c-0.147,0-0.28-0.029-0.398-0.088c-0.119-0.057-0.221-0.137-0.303-0.242
				c-0.084-0.104-0.147-0.227-0.193-0.367c-0.045-0.143-0.066-0.299-0.066-0.469c0-0.168,0.023-0.324,0.072-0.467
				c0.048-0.143,0.115-0.266,0.203-0.369s0.193-0.186,0.316-0.244c0.122-0.059,0.258-0.088,0.404-0.088
				c0.12,0,0.224,0.02,0.31,0.057c0.087,0.037,0.157,0.08,0.212,0.127c0.057,0.047,0.098,0.094,0.127,0.137
				c0.027,0.045,0.046,0.074,0.054,0.088v-1.299h0.437v3.182H59.722z M59.679,29.055c0-0.111-0.014-0.217-0.043-0.316
				c-0.027-0.1-0.068-0.186-0.121-0.26c-0.054-0.076-0.119-0.135-0.196-0.18c-0.077-0.043-0.165-0.066-0.264-0.066
				c-0.1,0-0.188,0.021-0.269,0.066c-0.078,0.043-0.146,0.102-0.202,0.176s-0.1,0.162-0.13,0.262
				c-0.029,0.1-0.045,0.207-0.045,0.318c0,0.113,0.014,0.219,0.042,0.318c0.027,0.1,0.068,0.188,0.122,0.264
				c0.054,0.074,0.119,0.135,0.197,0.18c0.077,0.043,0.166,0.066,0.266,0.066c0.098,0,0.187-0.023,0.266-0.066
				s0.146-0.104,0.203-0.178c0.056-0.076,0.1-0.164,0.129-0.264C59.664,29.273,59.679,29.168,59.679,29.055z"/>
			<path d="M62.169,28.264v1.162c0,0.1,0.006,0.178,0.018,0.236c0.012,0.057,0.031,0.1,0.058,0.127
				c0.03,0.035,0.065,0.061,0.108,0.074c0.041,0.016,0.087,0.023,0.137,0.023c0.049,0,0.096-0.004,0.141-0.014
				c0.045-0.008,0.077-0.016,0.096-0.023l0.051,0.32c-0.023,0.008-0.051,0.016-0.082,0.023c-0.033,0.008-0.068,0.014-0.105,0.02
				s-0.075,0.01-0.115,0.014c-0.041,0.002-0.08,0.004-0.117,0.004c-0.092,0-0.178-0.012-0.258-0.037
				c-0.079-0.023-0.148-0.068-0.209-0.131c-0.064-0.064-0.106-0.143-0.127-0.234s-0.031-0.209-0.031-0.35v-1.215h-0.33v-0.324h0.326
				l0.045-0.613h0.396v0.613h0.621v0.324H62.169z"/>
			<path d="M64.69,30.184v-1.336c0-0.088-0.007-0.166-0.021-0.238c-0.014-0.072-0.037-0.133-0.072-0.184
				c-0.033-0.049-0.079-0.088-0.137-0.115s-0.129-0.043-0.215-0.043s-0.164,0.021-0.234,0.061c-0.068,0.039-0.129,0.088-0.18,0.148
				c-0.051,0.059-0.092,0.123-0.123,0.189s-0.053,0.127-0.063,0.182v1.336h-0.437v-3.182h0.437l-0.003,1.35
				c0.033-0.055,0.074-0.111,0.12-0.164c0.047-0.055,0.101-0.105,0.163-0.148c0.061-0.043,0.131-0.078,0.209-0.105
				c0.076-0.027,0.162-0.041,0.256-0.041c0.113,0,0.216,0.018,0.306,0.051c0.091,0.033,0.167,0.084,0.23,0.152
				c0.063,0.07,0.112,0.156,0.146,0.262c0.034,0.105,0.051,0.23,0.051,0.373v1.453H64.69z"/>
			<path d="M66.062,29.148c0.002,0.113,0.018,0.215,0.049,0.305c0.031,0.092,0.076,0.17,0.135,0.232
				c0.059,0.064,0.129,0.113,0.212,0.148s0.177,0.053,0.281,0.053c0.103,0,0.195-0.012,0.277-0.035
				c0.083-0.023,0.153-0.051,0.212-0.082c0.061-0.029,0.106-0.057,0.141-0.084s0.055-0.045,0.061-0.051l0.174,0.275
				c-0.062,0.061-0.137,0.113-0.227,0.16c-0.075,0.039-0.171,0.074-0.285,0.107c-0.115,0.031-0.25,0.049-0.407,0.049
				c-0.155,0-0.298-0.027-0.429-0.078c-0.13-0.053-0.242-0.129-0.336-0.227c-0.095-0.1-0.168-0.221-0.221-0.365
				c-0.052-0.145-0.078-0.307-0.078-0.49c0-0.186,0.027-0.352,0.082-0.496s0.129-0.268,0.225-0.367
				c0.095-0.1,0.207-0.178,0.337-0.23s0.27-0.08,0.42-0.08s0.286,0.027,0.405,0.082c0.121,0.053,0.223,0.129,0.307,0.225
				c0.084,0.098,0.148,0.213,0.193,0.348c0.045,0.133,0.068,0.281,0.068,0.441v0.16H66.062z M67.234,28.848
				c0-0.082-0.011-0.16-0.032-0.236c-0.021-0.078-0.055-0.146-0.1-0.205c-0.045-0.061-0.104-0.107-0.174-0.145
				c-0.072-0.035-0.158-0.053-0.26-0.053c-0.103,0-0.19,0.02-0.264,0.059c-0.074,0.039-0.136,0.09-0.186,0.15
				c-0.05,0.062-0.088,0.131-0.113,0.207c-0.027,0.074-0.043,0.148-0.049,0.223H67.234z"/>
			<path d="M70.507,28.555c-0.041-0.055-0.09-0.104-0.145-0.148c-0.048-0.039-0.107-0.072-0.179-0.105
				c-0.071-0.031-0.152-0.047-0.244-0.047c-0.093,0-0.181,0.018-0.264,0.051c-0.082,0.033-0.155,0.082-0.218,0.148
				c-0.063,0.066-0.113,0.15-0.15,0.25c-0.035,0.102-0.055,0.219-0.055,0.354s0.02,0.252,0.055,0.352
				c0.037,0.102,0.086,0.184,0.147,0.25s0.134,0.117,0.215,0.15s0.168,0.049,0.26,0.049c0.091,0,0.172-0.014,0.245-0.045
				c0.072-0.029,0.135-0.062,0.186-0.1c0.052-0.037,0.092-0.072,0.12-0.105c0.028-0.031,0.044-0.051,0.048-0.055l0.223,0.275
				c-0.006,0.006-0.019,0.02-0.037,0.043c-0.018,0.023-0.043,0.049-0.076,0.08c-0.031,0.029-0.071,0.061-0.118,0.094
				c-0.047,0.031-0.103,0.062-0.166,0.09s-0.137,0.051-0.218,0.068c-0.08,0.02-0.17,0.027-0.27,0.027
				c-0.148,0-0.287-0.025-0.414-0.08c-0.128-0.053-0.238-0.129-0.332-0.229c-0.095-0.102-0.168-0.223-0.223-0.367
				c-0.054-0.145-0.08-0.307-0.08-0.488s0.029-0.346,0.088-0.49s0.137-0.268,0.236-0.369c0.098-0.102,0.213-0.18,0.344-0.232
				c0.13-0.055,0.268-0.082,0.414-0.082c0.145,0,0.27,0.021,0.375,0.061c0.104,0.041,0.189,0.086,0.257,0.135
				s0.118,0.096,0.151,0.139c0.035,0.041,0.055,0.066,0.059,0.07L70.507,28.555z"/>
			<path d="M73.171,29.061c0,0.18-0.025,0.34-0.078,0.484s-0.125,0.266-0.221,0.367c-0.095,0.1-0.209,0.178-0.343,0.232
				s-0.281,0.082-0.442,0.082c-0.163,0-0.312-0.027-0.445-0.082c-0.133-0.055-0.248-0.133-0.343-0.232
				c-0.095-0.102-0.169-0.223-0.221-0.367S71,29.24,71,29.061c0-0.176,0.026-0.338,0.078-0.48c0.052-0.145,0.126-0.268,0.221-0.369
				s0.209-0.18,0.342-0.234s0.28-0.084,0.441-0.084c0.163,0,0.312,0.027,0.444,0.082c0.135,0.055,0.249,0.133,0.345,0.234
				s0.169,0.225,0.222,0.367C73.146,28.721,73.171,28.883,73.171,29.061z M72.726,29.061c0-0.121-0.014-0.232-0.042-0.334
				s-0.068-0.188-0.122-0.262c-0.055-0.072-0.121-0.129-0.199-0.17c-0.08-0.041-0.172-0.062-0.275-0.062s-0.194,0.021-0.274,0.062
				c-0.079,0.041-0.147,0.098-0.202,0.17c-0.054,0.074-0.096,0.16-0.123,0.262s-0.041,0.213-0.041,0.334
				c0,0.119,0.014,0.23,0.041,0.332s0.068,0.188,0.123,0.262c0.053,0.072,0.119,0.129,0.199,0.17
				c0.078,0.041,0.17,0.062,0.272,0.062s0.194-0.02,0.274-0.061s0.146-0.098,0.201-0.17s0.096-0.16,0.125-0.262
				C72.711,29.293,72.726,29.182,72.726,29.061z"/>
			<path d="M74.921,28.338c-0.014-0.006-0.028-0.01-0.046-0.016c-0.015-0.002-0.031-0.006-0.052-0.01
				c-0.021-0.004-0.044-0.006-0.068-0.006c-0.051,0-0.103,0.006-0.154,0.02c-0.053,0.014-0.106,0.039-0.162,0.078
				c-0.031,0.021-0.063,0.049-0.096,0.082c-0.033,0.033-0.062,0.072-0.092,0.115c-0.028,0.043-0.053,0.092-0.074,0.146
				c-0.021,0.053-0.038,0.111-0.049,0.174v1.262H73.69v-2.244h0.406l0.031,0.436c0.028-0.062,0.064-0.123,0.11-0.182
				c0.045-0.059,0.097-0.111,0.155-0.156s0.123-0.082,0.192-0.107c0.069-0.027,0.144-0.041,0.22-0.041
				c0.027,0,0.052,0.002,0.073,0.004c0.021,0.004,0.04,0.008,0.056,0.01c0.018,0.006,0.033,0.01,0.047,0.012L74.921,28.338z"/>
			<path d="M76.856,30.184v-1.336c0-0.088-0.008-0.166-0.021-0.238s-0.038-0.133-0.072-0.184c-0.033-0.049-0.08-0.088-0.137-0.115
				c-0.059-0.027-0.129-0.043-0.215-0.043c-0.087,0-0.165,0.021-0.234,0.061s-0.129,0.088-0.18,0.148
				c-0.051,0.059-0.092,0.123-0.123,0.189s-0.053,0.127-0.064,0.182v1.336h-0.437v-2.244h0.405l0.031,0.412
				c0.033-0.055,0.073-0.111,0.12-0.164c0.046-0.055,0.101-0.105,0.162-0.148s0.131-0.078,0.208-0.105
				c0.078-0.027,0.163-0.041,0.256-0.041c0.114,0,0.216,0.018,0.307,0.051c0.09,0.033,0.166,0.084,0.229,0.152
				c0.064,0.07,0.112,0.156,0.146,0.262c0.033,0.105,0.051,0.23,0.051,0.373v1.453H76.856z"/>
			<path d="M78.228,29.148c0.002,0.113,0.018,0.215,0.049,0.305c0.031,0.092,0.076,0.17,0.135,0.232
				c0.059,0.064,0.129,0.113,0.212,0.148s0.177,0.053,0.281,0.053c0.103,0,0.195-0.012,0.277-0.035
				c0.083-0.023,0.153-0.051,0.212-0.082c0.061-0.029,0.106-0.057,0.141-0.084s0.055-0.045,0.061-0.051l0.174,0.275
				c-0.062,0.061-0.137,0.113-0.227,0.16c-0.075,0.039-0.171,0.074-0.285,0.107c-0.115,0.031-0.25,0.049-0.407,0.049
				c-0.155,0-0.298-0.027-0.429-0.078c-0.13-0.053-0.242-0.129-0.336-0.227c-0.095-0.1-0.168-0.221-0.221-0.365
				c-0.052-0.145-0.078-0.307-0.078-0.49c0-0.186,0.027-0.352,0.082-0.496s0.129-0.268,0.225-0.367
				c0.095-0.1,0.207-0.178,0.337-0.23s0.27-0.08,0.42-0.08s0.286,0.027,0.405,0.082c0.121,0.053,0.223,0.129,0.307,0.225
				c0.084,0.098,0.148,0.213,0.193,0.348c0.045,0.133,0.068,0.281,0.068,0.441v0.16H78.228z M79.4,28.848
				c0-0.082-0.011-0.16-0.032-0.236c-0.021-0.078-0.055-0.146-0.1-0.205c-0.045-0.061-0.104-0.107-0.174-0.145
				c-0.072-0.035-0.158-0.053-0.26-0.053c-0.103,0-0.19,0.02-0.264,0.059c-0.074,0.039-0.136,0.09-0.186,0.15
				c-0.05,0.062-0.088,0.131-0.113,0.207c-0.027,0.074-0.043,0.148-0.049,0.223H79.4z"/>
			<path d="M81.546,28.338c-0.014-0.006-0.028-0.01-0.046-0.016c-0.015-0.002-0.031-0.006-0.052-0.01
				c-0.021-0.004-0.044-0.006-0.068-0.006c-0.051,0-0.103,0.006-0.154,0.02c-0.053,0.014-0.106,0.039-0.162,0.078
				c-0.031,0.021-0.063,0.049-0.096,0.082c-0.033,0.033-0.062,0.072-0.092,0.115c-0.028,0.043-0.053,0.092-0.074,0.146
				c-0.021,0.053-0.038,0.111-0.049,0.174v1.262h-0.438v-2.244h0.406l0.031,0.436c0.028-0.062,0.064-0.123,0.11-0.182
				c0.045-0.059,0.097-0.111,0.155-0.156s0.123-0.082,0.192-0.107c0.069-0.027,0.144-0.041,0.22-0.041
				c0.027,0,0.052,0.002,0.073,0.004c0.021,0.004,0.04,0.008,0.056,0.01c0.018,0.006,0.033,0.01,0.047,0.012L81.546,28.338z"/>
			<path d="M84.142,30.184c-0.01-0.029-0.018-0.059-0.024-0.088c-0.007-0.027-0.012-0.057-0.017-0.09
				c-0.004-0.031-0.007-0.064-0.007-0.1c-0.033,0.039-0.072,0.078-0.116,0.117c-0.045,0.039-0.096,0.074-0.154,0.104
				c-0.059,0.031-0.125,0.057-0.198,0.076c-0.073,0.018-0.155,0.027-0.245,0.027c-0.091,0-0.179-0.014-0.264-0.039
				c-0.086-0.025-0.161-0.066-0.227-0.123c-0.066-0.055-0.119-0.125-0.159-0.211c-0.04-0.088-0.061-0.191-0.061-0.311
				c0-0.121,0.022-0.221,0.069-0.301c0.045-0.08,0.1-0.145,0.164-0.195c0.064-0.049,0.131-0.088,0.201-0.113
				c0.069-0.027,0.127-0.045,0.173-0.059c0.091-0.023,0.206-0.045,0.349-0.062c0.143-0.016,0.293-0.025,0.453-0.025v-0.135
				c0-0.082-0.014-0.15-0.041-0.205c-0.027-0.057-0.064-0.102-0.11-0.137c-0.046-0.033-0.101-0.059-0.163-0.074
				c-0.062-0.014-0.127-0.021-0.195-0.021c-0.07,0-0.137,0.006-0.203,0.018c-0.065,0.012-0.127,0.027-0.186,0.047
				c-0.057,0.02-0.11,0.043-0.158,0.066c-0.049,0.025-0.09,0.049-0.125,0.072l-0.14-0.309c0.046-0.027,0.099-0.055,0.159-0.08
				c0.06-0.027,0.125-0.051,0.197-0.072c0.07-0.02,0.146-0.035,0.225-0.049c0.079-0.012,0.16-0.02,0.244-0.02
				c0.168,0,0.308,0.021,0.42,0.061c0.111,0.041,0.199,0.09,0.264,0.145c0.035,0.029,0.066,0.064,0.096,0.102
				s0.056,0.08,0.078,0.131c0.021,0.051,0.039,0.109,0.052,0.176s0.019,0.143,0.019,0.23v0.971c0,0.115,0.01,0.209,0.027,0.281
				c0.019,0.072,0.043,0.137,0.075,0.195H84.142z M84.079,29.074c-0.021,0-0.054,0.002-0.096,0.004
				c-0.042,0.004-0.087,0.006-0.135,0.01c-0.049,0.002-0.098,0.006-0.146,0.012c-0.048,0.004-0.09,0.01-0.124,0.014
				c-0.037,0.006-0.082,0.016-0.136,0.031c-0.054,0.014-0.104,0.035-0.154,0.066c-0.049,0.029-0.091,0.07-0.126,0.119
				c-0.035,0.051-0.052,0.113-0.052,0.191c0,0.076,0.013,0.139,0.038,0.189s0.058,0.092,0.098,0.121
				c0.039,0.029,0.083,0.051,0.131,0.064c0.049,0.012,0.096,0.02,0.142,0.02c0.044,0,0.093-0.008,0.145-0.021
				s0.104-0.033,0.153-0.062s0.098-0.064,0.144-0.109c0.046-0.043,0.085-0.096,0.118-0.156V29.074z"/>
			<path d="M86.376,28.338c-0.012-0.006-0.027-0.01-0.045-0.016c-0.014-0.002-0.031-0.006-0.053-0.01
				c-0.02-0.004-0.043-0.006-0.068-0.006c-0.051,0-0.102,0.006-0.154,0.02c-0.052,0.014-0.105,0.039-0.161,0.078
				c-0.032,0.021-0.063,0.049-0.097,0.082c-0.031,0.033-0.062,0.072-0.091,0.115s-0.054,0.092-0.075,0.146
				c-0.021,0.053-0.037,0.111-0.048,0.174v1.262h-0.437v-2.244h0.405l0.031,0.436c0.028-0.062,0.065-0.123,0.11-0.182
				s0.097-0.111,0.155-0.156s0.122-0.082,0.192-0.107c0.069-0.027,0.143-0.041,0.221-0.041c0.027,0,0.051,0.002,0.072,0.004
				c0.021,0.004,0.039,0.008,0.056,0.01c0.018,0.006,0.033,0.01,0.048,0.012L86.376,28.338z"/>
			<path d="M88.726,29.061c0,0.18-0.025,0.34-0.078,0.484s-0.125,0.266-0.221,0.367c-0.095,0.1-0.209,0.178-0.343,0.232
				s-0.281,0.082-0.442,0.082c-0.163,0-0.312-0.027-0.445-0.082c-0.133-0.055-0.248-0.133-0.343-0.232
				c-0.095-0.102-0.169-0.223-0.221-0.367s-0.078-0.305-0.078-0.484c0-0.176,0.026-0.338,0.078-0.48
				c0.052-0.145,0.126-0.268,0.221-0.369s0.209-0.18,0.342-0.234s0.28-0.084,0.441-0.084c0.163,0,0.312,0.027,0.444,0.082
				c0.135,0.055,0.249,0.133,0.345,0.234s0.169,0.225,0.222,0.367C88.7,28.721,88.726,28.883,88.726,29.061z M88.28,29.061
				c0-0.121-0.014-0.232-0.042-0.334s-0.068-0.188-0.122-0.262c-0.055-0.072-0.121-0.129-0.199-0.17
				c-0.08-0.041-0.172-0.062-0.275-0.062s-0.194,0.021-0.274,0.062c-0.079,0.041-0.147,0.098-0.202,0.17
				c-0.054,0.074-0.096,0.16-0.123,0.262s-0.041,0.213-0.041,0.334c0,0.119,0.014,0.23,0.041,0.332s0.068,0.188,0.123,0.262
				c0.053,0.072,0.119,0.129,0.199,0.17c0.078,0.041,0.17,0.062,0.272,0.062s0.194-0.02,0.274-0.061s0.146-0.098,0.201-0.17
				s0.096-0.16,0.125-0.262C88.266,29.293,88.28,29.182,88.28,29.061z"/>
			<path d="M90.71,30.184l-0.029-0.408c-0.033,0.055-0.072,0.109-0.119,0.164c-0.047,0.053-0.101,0.102-0.16,0.145
				c-0.061,0.043-0.129,0.076-0.203,0.104c-0.075,0.025-0.158,0.039-0.248,0.039c-0.107,0-0.205-0.016-0.295-0.047
				c-0.088-0.031-0.164-0.08-0.229-0.146s-0.115-0.152-0.151-0.256c-0.035-0.105-0.053-0.232-0.053-0.381v-1.457h0.432v1.363
				c0,0.088,0.008,0.164,0.023,0.232s0.042,0.127,0.078,0.174c0.035,0.047,0.08,0.084,0.136,0.107
				c0.056,0.025,0.122,0.037,0.202,0.037s0.154-0.018,0.221-0.053c0.066-0.037,0.125-0.082,0.176-0.139
				c0.053-0.057,0.094-0.117,0.127-0.186c0.031-0.066,0.054-0.131,0.064-0.193v-1.344h0.432v2.244H90.71z"/>
			<path d="M93.294,30.184v-1.336c0-0.088-0.008-0.166-0.021-0.238c-0.015-0.072-0.038-0.133-0.072-0.184
				c-0.034-0.049-0.08-0.088-0.138-0.115s-0.129-0.043-0.214-0.043c-0.087,0-0.165,0.021-0.234,0.061s-0.13,0.088-0.18,0.148
				c-0.051,0.059-0.092,0.123-0.124,0.189c-0.031,0.066-0.053,0.127-0.062,0.182v1.336h-0.438v-2.244h0.406l0.03,0.412
				c0.033-0.055,0.073-0.111,0.12-0.164c0.047-0.055,0.101-0.105,0.162-0.148s0.131-0.078,0.209-0.105
				c0.076-0.027,0.162-0.041,0.255-0.041c0.114,0,0.216,0.018,0.306,0.051s0.167,0.084,0.229,0.152
				c0.063,0.07,0.112,0.156,0.146,0.262c0.033,0.105,0.051,0.23,0.051,0.373v1.453H93.294z"/>
			<path d="M95.981,30.184L95.93,29.84c-0.003,0.004-0.012,0.018-0.026,0.037c-0.015,0.021-0.034,0.045-0.061,0.074
				c-0.026,0.027-0.059,0.059-0.099,0.092c-0.039,0.031-0.086,0.061-0.14,0.088s-0.115,0.049-0.186,0.068
				c-0.069,0.018-0.147,0.027-0.234,0.027c-0.147,0-0.28-0.029-0.398-0.088c-0.119-0.057-0.22-0.137-0.303-0.242
				c-0.083-0.104-0.147-0.227-0.192-0.367c-0.045-0.143-0.067-0.299-0.067-0.469c0-0.168,0.023-0.324,0.072-0.467
				c0.048-0.143,0.116-0.266,0.204-0.369s0.192-0.186,0.315-0.244c0.122-0.059,0.258-0.088,0.404-0.088
				c0.12,0,0.224,0.02,0.31,0.057c0.087,0.037,0.157,0.08,0.213,0.127s0.097,0.094,0.126,0.137c0.028,0.045,0.046,0.074,0.054,0.088
				v-1.299h0.438v3.182H95.981z M95.938,29.055c0-0.111-0.014-0.217-0.042-0.316s-0.069-0.186-0.122-0.26
				c-0.054-0.076-0.118-0.135-0.196-0.18c-0.077-0.043-0.165-0.066-0.264-0.066c-0.1,0-0.188,0.021-0.268,0.066
				c-0.079,0.043-0.146,0.102-0.203,0.176c-0.056,0.074-0.1,0.162-0.129,0.262c-0.03,0.1-0.045,0.207-0.045,0.318
				c0,0.113,0.014,0.219,0.041,0.318s0.068,0.188,0.122,0.264c0.054,0.074,0.119,0.135,0.197,0.18
				c0.077,0.043,0.166,0.066,0.266,0.066c0.098,0,0.187-0.023,0.266-0.066s0.146-0.104,0.203-0.178
				c0.056-0.076,0.1-0.164,0.129-0.264C95.924,29.273,95.938,29.168,95.938,29.055z"/>
			<path d="M98.429,28.264v1.162c0,0.1,0.006,0.178,0.018,0.236c0.012,0.057,0.031,0.1,0.058,0.127
				c0.03,0.035,0.066,0.061,0.108,0.074c0.042,0.016,0.087,0.023,0.137,0.023c0.049,0,0.096-0.004,0.141-0.014
				c0.045-0.008,0.077-0.016,0.097-0.023l0.05,0.32c-0.022,0.008-0.05,0.016-0.082,0.023s-0.067,0.014-0.104,0.02
				s-0.076,0.01-0.116,0.014c-0.04,0.002-0.08,0.004-0.117,0.004c-0.092,0-0.178-0.012-0.257-0.037
				c-0.08-0.023-0.149-0.068-0.21-0.131c-0.063-0.064-0.106-0.143-0.127-0.234s-0.031-0.209-0.031-0.35v-1.215h-0.329v-0.324h0.325
				l0.045-0.613h0.396v0.613h0.621v0.324H98.429z"/>
			<path d="M100.951,30.184v-1.336c0-0.088-0.008-0.166-0.021-0.238c-0.015-0.072-0.038-0.133-0.072-0.184
				c-0.034-0.049-0.08-0.088-0.138-0.115s-0.129-0.043-0.214-0.043c-0.087,0-0.165,0.021-0.234,0.061s-0.13,0.088-0.18,0.148
				c-0.051,0.059-0.092,0.123-0.124,0.189c-0.031,0.066-0.053,0.127-0.063,0.182v1.336h-0.437v-3.182h0.437l-0.002,1.35
				c0.033-0.055,0.073-0.111,0.119-0.164c0.047-0.055,0.102-0.105,0.163-0.148s0.131-0.078,0.209-0.105
				c0.077-0.027,0.162-0.041,0.256-0.041c0.114,0,0.216,0.018,0.306,0.051c0.091,0.033,0.167,0.084,0.23,0.152
				c0.063,0.07,0.112,0.156,0.146,0.262c0.033,0.105,0.051,0.23,0.051,0.373v1.453H100.951z"/>
			<path d="M102.322,29.148c0.002,0.113,0.018,0.215,0.049,0.305c0.031,0.092,0.075,0.17,0.134,0.232
				c0.059,0.064,0.13,0.113,0.213,0.148s0.177,0.053,0.281,0.053c0.103,0,0.195-0.012,0.277-0.035s0.153-0.051,0.212-0.082
				c0.06-0.029,0.106-0.057,0.141-0.084s0.054-0.045,0.061-0.051l0.173,0.275c-0.062,0.061-0.137,0.113-0.226,0.16
				c-0.075,0.039-0.171,0.074-0.285,0.107c-0.115,0.031-0.251,0.049-0.407,0.049c-0.155,0-0.298-0.027-0.429-0.078
				c-0.13-0.053-0.242-0.129-0.337-0.227c-0.094-0.1-0.167-0.221-0.22-0.365c-0.052-0.145-0.078-0.307-0.078-0.49
				c0-0.186,0.027-0.352,0.082-0.496s0.129-0.268,0.225-0.367c0.095-0.1,0.207-0.178,0.337-0.23s0.27-0.08,0.42-0.08
				s0.285,0.027,0.405,0.082c0.12,0.053,0.223,0.129,0.307,0.225c0.084,0.098,0.148,0.213,0.193,0.348
				c0.045,0.133,0.067,0.281,0.067,0.441v0.16H102.322z M103.495,28.848c0-0.082-0.011-0.16-0.032-0.236
				c-0.021-0.078-0.055-0.146-0.1-0.205c-0.046-0.061-0.104-0.107-0.175-0.145c-0.071-0.035-0.157-0.053-0.259-0.053
				c-0.103,0-0.19,0.02-0.265,0.059c-0.073,0.039-0.135,0.09-0.185,0.15c-0.05,0.062-0.088,0.131-0.114,0.207
				c-0.026,0.074-0.042,0.148-0.049,0.223H103.495z"/>
			<path d="M107.574,30.184h-0.441l-0.524-1.758l-0.521,1.758h-0.443l-0.655-2.244h0.441l0.458,1.762l0.496-1.762h0.446l0.491,1.762
				l0.456-1.762h0.448L107.574,30.184z"/>
			<path d="M110.646,29.061c0,0.18-0.026,0.34-0.078,0.484c-0.053,0.145-0.126,0.266-0.221,0.367
				c-0.095,0.1-0.209,0.178-0.343,0.232s-0.281,0.082-0.442,0.082c-0.163,0-0.312-0.027-0.445-0.082s-0.248-0.133-0.343-0.232
				c-0.095-0.102-0.169-0.223-0.221-0.367c-0.053-0.145-0.078-0.305-0.078-0.484c0-0.176,0.025-0.338,0.078-0.48
				c0.052-0.145,0.126-0.268,0.221-0.369s0.209-0.18,0.342-0.234s0.279-0.084,0.441-0.084c0.163,0,0.311,0.027,0.444,0.082
				s0.249,0.133,0.345,0.234s0.169,0.225,0.222,0.367C110.62,28.721,110.646,28.883,110.646,29.061z M110.2,29.061
				c0-0.121-0.014-0.232-0.041-0.334c-0.028-0.102-0.068-0.188-0.122-0.262c-0.055-0.072-0.121-0.129-0.2-0.17
				s-0.171-0.062-0.274-0.062s-0.194,0.021-0.274,0.062s-0.147,0.098-0.202,0.17c-0.054,0.074-0.096,0.16-0.123,0.262
				s-0.041,0.213-0.041,0.334c0,0.119,0.014,0.23,0.041,0.332s0.068,0.188,0.122,0.262c0.054,0.072,0.12,0.129,0.199,0.17
				s0.17,0.062,0.273,0.062c0.103,0,0.194-0.02,0.273-0.061c0.08-0.041,0.147-0.098,0.202-0.17s0.096-0.16,0.124-0.262
				C110.187,29.293,110.2,29.182,110.2,29.061z"/>
			<path d="M112.396,28.338c-0.013-0.006-0.028-0.01-0.046-0.016c-0.014-0.002-0.031-0.006-0.052-0.01s-0.044-0.006-0.068-0.006
				c-0.051,0-0.103,0.006-0.154,0.02c-0.053,0.014-0.106,0.039-0.162,0.078c-0.031,0.021-0.063,0.049-0.096,0.082
				s-0.062,0.072-0.092,0.115c-0.028,0.043-0.053,0.092-0.074,0.146c-0.021,0.053-0.038,0.111-0.049,0.174v1.262h-0.437v-2.244
				h0.405l0.031,0.436c0.028-0.062,0.065-0.123,0.11-0.182s0.097-0.111,0.155-0.156s0.123-0.082,0.192-0.107
				c0.069-0.027,0.144-0.041,0.221-0.041c0.027,0,0.051,0.002,0.072,0.004c0.021,0.004,0.04,0.008,0.056,0.01
				c0.018,0.006,0.033,0.01,0.048,0.012L112.396,28.338z"/>
			<path d="M112.849,30.184v-3.182h0.437v3.182H112.849z"/>
			<path d="M115.561,30.184l-0.052-0.344c-0.003,0.004-0.012,0.018-0.026,0.037c-0.015,0.021-0.034,0.045-0.061,0.074
				c-0.026,0.027-0.059,0.059-0.099,0.092c-0.039,0.031-0.086,0.061-0.14,0.088s-0.115,0.049-0.186,0.068
				c-0.069,0.018-0.147,0.027-0.234,0.027c-0.147,0-0.28-0.029-0.398-0.088c-0.119-0.057-0.22-0.137-0.303-0.242
				c-0.083-0.104-0.147-0.227-0.192-0.367c-0.045-0.143-0.067-0.299-0.067-0.469c0-0.168,0.023-0.324,0.072-0.467
				c0.048-0.143,0.116-0.266,0.204-0.369s0.192-0.186,0.315-0.244c0.122-0.059,0.258-0.088,0.404-0.088
				c0.12,0,0.224,0.02,0.31,0.057c0.087,0.037,0.157,0.08,0.213,0.127s0.097,0.094,0.126,0.137c0.028,0.045,0.046,0.074,0.054,0.088
				v-1.299h0.438v3.182H115.561z M115.518,29.055c0-0.111-0.014-0.217-0.042-0.316s-0.069-0.186-0.122-0.26
				c-0.054-0.076-0.118-0.135-0.196-0.18c-0.077-0.043-0.165-0.066-0.264-0.066c-0.1,0-0.188,0.021-0.268,0.066
				c-0.079,0.043-0.146,0.102-0.203,0.176c-0.056,0.074-0.1,0.162-0.129,0.262c-0.03,0.1-0.045,0.207-0.045,0.318
				c0,0.113,0.014,0.219,0.041,0.318s0.068,0.188,0.122,0.264c0.054,0.074,0.119,0.135,0.197,0.18
				c0.077,0.043,0.166,0.066,0.266,0.066c0.098,0,0.187-0.023,0.266-0.066s0.146-0.104,0.203-0.178
				c0.056-0.076,0.1-0.164,0.129-0.264C115.503,29.273,115.518,29.168,115.518,29.055z"/>
		</g>
	</g>
</g>
</svg>
