<?xml version="1.0" encoding="utf-8"?>
<!-- Generator: Adobe Illustrator 15.0.0, SVG Export Plug-In . SVG Version: 6.00 Build 0)  -->
<!DOCTYPE svg PUBLIC "-//W3C//DTD SVG 1.1//EN" "http://www.w3.org/Graphics/SVG/1.1/DTD/svg11.dtd">
<svg version="1.1" id="Layer_1" xmlns="http://www.w3.org/2000/svg" xmlns:xlink="http://www.w3.org/1999/xlink" x="0px" y="0px"
	 width="825px" height="260px" viewBox="0 0 825 260" enable-background="new 0 0 825 260" xml:space="preserve">
<g>
	<path fill="#FFFFFF" d="M259.256,130c0,67.943-55.078,123.021-123.021,123.021c-67.943,0-123.021-55.078-123.021-123.021
		c0-67.943,55.078-123.021,123.021-123.021C204.178,6.979,259.256,62.057,259.256,130"/>
	<polygon points="285.205,168.058 285.205,152.093 321.828,107.812 286.939,107.812 286.939,89.491 351.265,89.491 351.265,106.077 
		315.885,149.135 353.141,149.135 353.141,168.058 	"/>
	<path d="M379.107,143.806c0.608,7.051,6.806,9.152,12.986,9.152c6.186,0,13.492-2.465,16.585-4.944l7.057,12.98
		c0,0-8.299,8.3-27.106,8.3c-18.802,0-32.544-10.765-32.544-31.052c0-20.286,13.621-31.051,32.422-31.051
		c18.801,0,28.957,12.986,28.957,31.801v4.813H379.107z M387.527,121.913c-5.584,0-8.42,4.079-9.042,9.022h17.444
		C395.929,125.992,393.086,121.913,387.527,121.913"/>
	<path d="M463.108,168.058v-32.787c0-5.577-1.614-9.157-7.19-9.157c-5.559,0-7.672,4.329-8.274,8.042v33.901h-23.015v-59.644h21.767
		l1.248,8.299c3.586-4.457,9.153-9.522,17.803-9.522c16.086,0,20.685,10.143,20.685,23.745v37.122H463.108z"/>
	<path d="M552.312,163.114c-5.315,3.342-13.365,4.943-22.645,4.943h-34.399V89.492h33.165c7.414,0,16.086,1.12,21.035,4.201
		c4.943,3.098,8.542,8.164,8.542,16.22c0,8.043-5.698,14.601-13.121,16.451c10.521,1.851,17.078,9.393,17.078,18.693
		C561.968,154.334,557.633,159.771,552.312,163.114 M534.368,113.493c0-4.08-3.08-6.559-7.171-6.559h-8.549v13h8.549
		c4.091,0,7.171-2.478,7.171-6.558V113.493z M527.318,135.515h-8.67v15.343h8.67c6.192,0,10.515-1.864,10.515-7.665
		C537.833,137.378,533.511,135.515,527.318,135.515"/>
	<path d="M605.148,168.058c0,0-1.236-2.843-1.236-5.943c-3.1,3.101-7.793,7.18-16.701,7.18c-8.92,0-20.562-4.337-20.562-18.559
		c0-14.223,13.384-17.444,19.57-18.679c6.173-1.243,13.979-1.486,17.071-1.486v-1.255c0-4.931-4.079-6.161-9.899-6.161
		c-5.821,0-13.358,2.338-18.431,5.309l-5.327-15.33c6.179-3.099,16.706-5.942,26.601-5.942c9.9,0,17.335,2.1,22.157,5.942
		c4.821,3.823,7.921,9.157,7.921,19.044v21.036c0,6.18,0.486,10.521,2.965,14.844H605.148z M603.291,142.692
		c0,0-4.579,0.122-7.172,0.621c-2.605,0.493-6.441,1.851-6.441,5.566c0,3.713,2.842,5.576,5.941,5.576
		c3.093,0,6.43-1.618,7.672-4.699V142.692z"/>
	<path d="M673.949,168.058v-32.787c0-5.577-1.62-9.157-7.186-9.157c-5.571,0-7.684,4.329-8.291,8.042v33.901H635.45v-59.644h21.772
		l1.25,8.299c3.592-4.457,9.156-9.522,17.821-9.522c16.078,0,20.657,10.143,20.657,23.745v37.122H673.949z"/>
	<polygon points="744.717,168.058 735.931,150.121 727.017,168.058 701.528,168.058 721.695,137.992 702.772,108.414 
		728.266,108.414 736.545,125.992 744.831,108.414 769.581,108.414 750.651,137.992 770.817,168.058 	"/>
	<path fill="#642D8D" d="M93.871,101.491c0,6.34,5.149,11.488,11.482,11.488c6.327,0,11.482-5.148,11.482-11.488V90.009h-11.482
		C99.02,90.009,93.871,95.158,93.871,101.491"/>
	<path fill="#642D8D" d="M136.225,16.957c-61.994,0-112.429,50.435-112.429,112.449c0,61.98,50.435,112.429,112.429,112.429
		c62,0,112.449-50.449,112.449-112.429C248.673,67.392,198.225,16.957,136.225,16.957 M167.109,181.557H86.071l73.61-91.547h-30.059
		v11.847h-0.019c-0.199,13.236-10.976,23.898-24.251,23.898c-13.397,0-24.257-10.867-24.257-24.263
		c0-13.377,10.848-24.238,24.225-24.257h81.032l-73.61,91.546h30.11v-11.486c0-13.392,10.848-24.258,24.257-24.258
		c13.397,0,24.263,10.866,24.263,24.258C191.373,170.689,180.506,181.557,167.109,181.557"/>
	<path fill="#642D8D" d="M167.109,145.812c-6.333,0-11.488,5.148-11.488,11.482v11.487h8.279h3.209
		c6.333,0,11.488-5.167,11.488-11.487C178.597,150.96,173.442,145.812,167.109,145.812"/>
</g>
<text transform="matrix(1 0 0 1 284.0938 199.7773)"><tspan x="0" y="0" font-family="'Slate-Bold'" font-size="30.75">a</tspan><tspan x="16.361" y="0" font-family="'Slate-Bold'" font-size="30.75">r</tspan><tspan x="28.114" y="0" font-family="'Slate-Bold'" font-size="30.75">o</tspan><tspan x="45.512" y="0" font-family="'Slate-Bold'" font-size="30.75">u</tspan></text>
<text transform="matrix(1 0 0 1 347.4111 199.7773)" font-family="'Slate-Bold'" font-size="30.75">n</text>
<text transform="matrix(1 0 0 1 365.1816 199.7773)"><tspan x="0" y="0" font-family="'Slate-Bold'" font-size="30.75">d</tspan><tspan x="18.268" y="0" font-family="'Slate-Bold'" font-size="30.75"> </tspan><tspan x="23.954" y="0" font-family="'Slate-Bold'" font-size="30.75">t</tspan></text>
<text transform="matrix(1 0 0 1 400.7593 199.7773)" font-family="'Slate-Bold'" font-size="30.75">h</text>
<text transform="matrix(1 0 0 1 418.3789 199.7773)"><tspan x="0" y="0" font-family="'Slate-Bold'" font-size="30.75">e</tspan><tspan x="16.301" y="0" font-family="'Slate-Bold'" font-size="30.75"> co</tspan><tspan x="54.23" y="0" font-family="'Slate-Bold'" font-size="30.75">r</tspan></text>
<text transform="matrix(1 0 0 1 485.0137 199.7773)" font-family="'Slate-Bold'" font-size="30.75">n</text>
<text transform="matrix(1 0 0 1 502.6338 199.7773)"><tspan x="0" y="0" font-family="'Slate-Bold'" font-size="30.75">er</tspan><tspan x="28.638" y="0" font-family="'Slate-Bold'" font-size="30.75"> </tspan><tspan x="34.324" y="0" font-family="'Slate-Bold'" font-size="30.75">a</tspan></text>
<text transform="matrix(1 0 0 1 553.4023 199.7773)" font-family="'Slate-Bold'" font-size="30.75">r</text>
<text transform="matrix(1 0 0 1 564.9951 199.7773)"><tspan x="0" y="0" font-family="'Slate-Bold'" font-size="30.75">ou</tspan><tspan x="35.171" y="0" font-family="'Slate-Bold'" font-size="30.75">n</tspan></text>
<text transform="matrix(1 0 0 1 618.0996 199.7773)" font-family="'Slate-Bold'" font-size="30.75">d</text>
<text transform="matrix(1 0 0 1 636.0889 199.7773)"><tspan x="0" y="0" font-family="'Slate-Bold'" font-size="30.75"> </tspan><tspan x="5.687" y="0" font-family="'Slate-Bold'" font-size="30.75">t</tspan></text>
<text transform="matrix(1 0 0 1 653.3701 199.7773)" font-family="'Slate-Bold'" font-size="30.75">h</text>
<text transform="matrix(1 0 0 1 670.9902 199.7773)"><tspan x="0" y="0" font-family="'Slate-Bold'" font-size="30.75">e</tspan><tspan x="16.301" y="0" font-family="'Slate-Bold'" font-size="30.75"> </tspan><tspan x="21.987" y="0" font-family="'Slate-Bold'" font-size="30.75">w</tspan><tspan x="46.001" y="0" font-family="'Slate-Bold'" font-size="30.75">o</tspan></text>
<text transform="matrix(1 0 0 1 734.4277 199.7773)"><tspan x="0" y="0" font-family="'Slate-Bold'" font-size="30.75">r</tspan><tspan x="12.029" y="0" font-family="'Slate-Bold'" font-size="30.75">l</tspan></text>
<text transform="matrix(1 0 0 1 754.7529 199.7773)" font-family="'Slate-Bold'" font-size="30.75">d</text>
<text transform="matrix(1 0 0 1 769.1914 110.4141)" font-family="'Slate'" font-size="27">®</text>
</svg>
